<?xml version="1.0" encoding="UTF-8"?>
<svg version="1.1" xmlns="http://www.w3.org/2000/svg" width="934" height="315">
<path d="M0 0 C25.48401043 21.8542404 43.42630374 51.53016499 47.14916992 85.40698242 C48.28012382 101.19807408 48.23203964 117.29497593 44.3125 132.6875 C44.15152832 133.32977539 43.99055664 133.97205078 43.82470703 134.63378906 C35.70573082 166.06459994 15.76405242 194.24706927 -12.2734375 210.80859375 C-38.23701017 225.0974707 -67.6409357 230.22815308 -96.54321289 222.16577148 C-126.65451376 213.16987928 -151.56939977 191.95694196 -166.81445312 164.67041016 C-174.44901642 150.29844868 -180.0954458 133.93048336 -181.6875 117.6875 C-181.75308105 117.02524414 -181.81866211 116.36298828 -181.88623047 115.68066406 C-184.25566785 90.0316465 -180.04942031 65.79418794 -168.6875 42.6875 C-168.130625 41.54539062 -167.57375 40.40328125 -167 39.2265625 C-153.27689942 12.47922295 -129.75939576 -8.64966726 -101.25463867 -18.41381836 C-66.31665785 -29.46712707 -28.70881432 -22.64760959 0 0 Z M-137.23242188 27.00292969 C-157.41051003 50.36346799 -165.39479048 81.39577179 -163.6875 111.6875 C-161.72853147 134.58381298 -153.05965098 157.46472114 -137.6875 174.6875 C-137.01332031 175.50347656 -136.33914063 176.31945312 -135.64453125 177.16015625 C-120.02152183 195.57197245 -97.64520328 206.55080406 -73.6875 208.6875 C-49.43536044 210.0716887 -27.54106421 202.71409911 -9.20703125 186.95703125 C-8.37558594 186.20808594 -7.54414063 185.45914063 -6.6875 184.6875 C-5.51767578 183.64142578 -5.51767578 183.64142578 -4.32421875 182.57421875 C15.47483977 163.86940871 27.70941605 135.11697918 28.6484375 108.05859375 C29.03430664 78.38271291 22.35963365 50.45094374 2.3125 27.6875 C1.29929687 26.45966797 1.29929687 26.45966797 0.265625 25.20703125 C-15.28063378 6.90897119 -36.85845934 -3.96769895 -60.6875 -6.3125 C-91.364817 -8.25769315 -116.90420329 4.80621122 -137.23242188 27.00292969 Z " fill="#FFFFFF" transform="translate(413.6875,51.3125)"/>
<path d="M0 0 C53.13 0 106.26 0 161 0 C161 5.61 161 11.22 161 17 C113.81 17 66.62 17 18 17 C18 48.35 18 79.7 18 112 C59.25 112 100.5 112 143 112 C143 117.28 143 122.56 143 128 C101.75 128 60.5 128 18 128 C18 161 18 194 18 228 C66.18 228 114.36 228 164 228 C164 233.61 164 239.22 164 245 C109.88 245 55.76 245 0 245 C0 164.15 0 83.3 0 0 Z " fill="#FFFFFF" transform="translate(43,30)"/>
<path d="M0 0 C3.09378885 2.62924161 5.15002612 4.88753483 7.625 8.1875 C4.655 12.4775 1.685 16.7675 -1.375 21.1875 C-4.68758275 19.53120862 -6.2652593 18.50195101 -8.8125 16.0625 C-30.2210428 -2.83201209 -57.22287271 -5.19866651 -84.63427734 -3.68798828 C-99.77401101 -2.49525316 -115.59430574 2.75588092 -126.25 13.9375 C-135.22060751 25.05933234 -137.3719878 38.29297159 -136.375 52.1875 C-134.92279006 60.94957344 -130.74989615 68.74019511 -123.8125 74.375 C-115.49798705 80.02700037 -106.45228605 83.33070286 -96.85546875 86.03515625 C-95.94470581 86.29345718 -95.03394287 86.55175812 -94.09558105 86.81788635 C-82.64179034 90.01600291 -71.05144384 92.64839219 -59.45898438 95.28930664 C-48.81275488 97.72326605 -38.31656843 100.35252176 -27.9453125 103.79296875 C-27.10057373 104.07273056 -26.25583496 104.35249237 -25.38549805 104.64073181 C-8.18285586 110.5307716 7.29094469 120.02677685 15.8671875 136.5859375 C22.48130907 151.50391972 22.37238793 169.81619895 16.94091797 185.11425781 C10.23212985 201.61156142 -2.48695725 212.6644596 -18.625 219.5 C-53.17765331 232.84094988 -95.41913653 230.16224511 -129.05981445 215.41870117 C-141.99203219 209.45489359 -153.50560987 201.34336275 -164.375 192.1875 C-163.81055175 187.83886348 -162.22072036 185.00922345 -159.8125 181.375 C-159.17183594 180.39917969 -158.53117188 179.42335937 -157.87109375 178.41796875 C-157.13052734 177.31388672 -157.13052734 177.31388672 -156.375 176.1875 C-153.07944698 176.75910556 -151.71634975 177.60327509 -149.5625 180.125 C-129.96398976 200.51917625 -98.72712868 209.56503561 -71.2578125 210.3125 C-50.71180334 210.69161881 -27.22581072 208.70601858 -11.22265625 194.2421875 C-2.23707105 184.55371298 0.1071033 173.88182781 -0.13671875 160.93359375 C-0.79441395 150.59376269 -4.11936665 142.69908361 -11.375 135.1875 C-30.89525554 119.61543685 -57.04753818 114.97943359 -80.83911133 109.69573975 C-135.25523651 97.59697134 -135.25523651 97.59697134 -149.25 76.75 C-157.48126955 62.97405582 -158.12648324 46.63528817 -155.125 31.0859375 C-150.5055184 13.23356589 -139.8364411 -0.28657909 -124.21484375 -9.703125 C-87.5456269 -30.59244022 -32.79365389 -26.26088115 0 0 Z " fill="#FFFFFF" transform="translate(857.375,49.8125)"/>
<path d="M0 0 C-1.35744869 2.91616587 -2.91744175 5.34662063 -4.90625 7.87109375 C-5.47988281 8.60328125 -6.05351563 9.33546875 -6.64453125 10.08984375 C-7.25683594 10.86457031 -7.86914062 11.63929687 -8.5 12.4375 C-9.78153462 14.07139139 -11.06278338 15.70550702 -12.34375 17.33984375 C-12.97152344 18.13890137 -13.59929687 18.93795898 -14.24609375 19.76123047 C-16.51677923 22.65964164 -18.76048369 25.57743122 -21 28.5 C-27.89960906 37.4852752 -34.87151119 46.41442988 -41.83203125 55.35253906 C-48.3697012 63.74861519 -54.89517636 72.1529271 -61.375 80.59375 C-64.56628007 84.7424141 -67.78426975 88.87028011 -71 93 C-75.97564375 99.39131369 -80.95028955 105.78298283 -85.86328125 112.22265625 C-87.21313089 113.977214 -88.58316332 115.71658924 -89.98046875 117.43359375 C-90.54378906 118.13613281 -91.10710937 118.83867187 -91.6875 119.5625 C-92.16574219 120.14128906 -92.64398437 120.72007812 -93.13671875 121.31640625 C-94.15015081 122.95670675 -94.15015081 122.95670675 -93.9375 124.83203125 C-92.57135226 127.99124789 -90.47447345 130.48350951 -88.3125 133.125 C-87.30923792 134.37577465 -86.30666781 135.62710456 -85.3046875 136.87890625 C-84.7694043 137.54422363 -84.23412109 138.20954102 -83.68261719 138.89501953 C-80.73029879 142.58841611 -77.83613987 146.32693168 -74.9375 150.0625 C-74.3391333 150.83223145 -73.7407666 151.60196289 -73.12426758 152.39501953 C-68.93939229 157.78056297 -64.77815929 163.18371356 -60.625 168.59375 C-57.43372025 172.74241368 -54.215787 176.87032481 -51 181 C-46.18648277 187.18146123 -41.39575121 193.37921882 -36.625 199.59375 C-32.83409512 204.52192635 -29.00729383 209.42228328 -25.18725586 214.32788086 C-20.83608852 219.91815781 -16.50638893 225.52419875 -12.19921875 231.1484375 C-9.566339 234.56229579 -6.88347699 237.93503664 -4.1796875 241.29296875 C-3 243 -3 243 -3 245 C-20.2524935 247.36385345 -20.2524935 247.36385345 -26.02734375 243.72119141 C-29.62109313 240.30162886 -32.22445845 236.20973556 -34.77832031 231.98339844 C-36.53556473 229.13051002 -38.57424703 226.52181958 -40.625 223.875 C-41.70394531 222.42287109 -41.70394531 222.42287109 -42.8046875 220.94140625 C-45.49646046 217.33481366 -48.24014224 213.76989936 -50.98876953 210.20654297 C-54.50484219 205.64707743 -58.00448997 201.07524557 -61.5 196.5 C-65.32547945 191.49390611 -69.15615426 186.49200745 -73 181.5 C-76.8438464 176.50799168 -80.67431508 171.5059376 -84.5 166.5 C-86.14438526 164.34933492 -87.78892772 162.19879022 -89.43359375 160.04833984 C-90.44685589 158.72332903 -91.459892 157.39814532 -92.47265625 156.07275391 C-93.81380338 154.31833546 -95.15665015 152.56523211 -96.5 150.8125 C-97.2528125 149.82894531 -98.005625 148.84539062 -98.78125 147.83203125 C-101.12980226 144.8343193 -103.54826403 141.91359469 -106 139 C-114.5654305 149.976699 -123.07389687 160.99427657 -131.52001953 172.06298828 C-135.33253539 177.05284325 -139.1685218 182.02470368 -143 187 C-144.66695292 189.16644651 -146.33347413 191.33322497 -148 193.5 C-148.83332547 194.58333938 -149.6666588 195.66667272 -150.5 196.75 C-151.11875 197.554375 -151.11875 197.554375 -151.75 198.375 C-153 200 -154.25 201.625 -155.5 203.25 C-155.91217773 203.78584717 -156.32435547 204.32169434 -156.74902344 204.8737793 C-157.5855491 205.96123001 -158.42213803 207.04863207 -159.25878906 208.13598633 C-161.29379288 210.78093787 -163.32756533 213.42681112 -165.359375 216.07421875 C-170.40737273 222.64816351 -175.4778356 229.20436613 -180.5625 235.75 C-181.18286133 236.54946045 -181.80322266 237.3489209 -182.44238281 238.17260742 C-183.01956055 238.91486572 -183.59673828 239.65712402 -184.19140625 240.421875 C-184.70904541 241.08799805 -185.22668457 241.75412109 -185.76000977 242.44042969 C-187 244 -187 244 -188 245 C-189.56172745 245.08685603 -191.12729344 245.10702219 -192.69140625 245.09765625 C-193.63564453 245.09443359 -194.57988281 245.09121094 -195.55273438 245.08789062 C-196.54595703 245.07951172 -197.53917969 245.07113281 -198.5625 245.0625 C-199.55958984 245.05798828 -200.55667969 245.05347656 -201.58398438 245.04882812 C-204.05604849 245.03700007 -206.52799518 245.02051849 -209 245 C-207.58397689 240.77476975 -205.54649988 238.02973368 -202.625 234.6875 C-198.57490858 229.96872977 -194.76599017 225.12002833 -191.0625 220.125 C-186.44207707 213.90435097 -181.7221845 207.77856413 -176.91796875 201.69921875 C-173.56965393 197.46203225 -170.25243115 193.2008277 -166.9375 188.9375 C-166.03862061 187.78145264 -166.03862061 187.78145264 -165.12158203 186.60205078 C-160.93811659 181.2170858 -156.77735539 175.81523926 -152.625 170.40625 C-148.82900357 165.47145464 -144.99701961 160.56454869 -141.171875 155.65234375 C-137.76757571 151.27855923 -134.37502406 146.89641293 -131 142.5 C-127.10160707 137.4231713 -123.18089658 132.36420054 -119.25 127.3125 C-118.65775635 126.55138916 -118.0655127 125.79027832 -117.45532227 125.00610352 C-114.45487145 121.15127059 -111.45269151 117.29779123 -108.44921875 113.4453125 C-101.12301641 104.0437765 -93.84958536 94.60405533 -86.62207031 85.12646484 C-83.85494834 81.49888622 -81.0838169 77.87437434 -78.3125 74.25 C-77.77061035 73.54125732 -77.2287207 72.83251465 -76.67041016 72.10229492 C-71.79290787 65.7251051 -66.89860335 59.36099228 -62 53 C-60.33304708 50.83355349 -58.66651031 48.66678699 -57 46.5 C-54.53595289 43.2962603 -52.07149659 40.09284059 -49.60546875 36.890625 C-48.80753906 35.85421875 -48.00960937 34.8178125 -47.1875 33.75 C-46.58252686 32.96435669 -46.58252686 32.96435669 -45.96533203 32.1628418 C-42.99090424 28.29677821 -40.029046 24.42132609 -37.07739258 20.5378418 C-35.94673094 19.05985803 -34.80727053 17.58856213 -33.65893555 16.12426758 C-31.25037585 13.04327272 -29.06132908 10.10854477 -27.1328125 6.6953125 C-21.22076272 -3.2901113 -10.26591311 -0.90466967 0 0 Z " fill="#3EC35A" transform="translate(679,30)"/>
<path d="M0 0 C3.32611814 3.21082808 6.21643035 6.45343808 8.9375 10.1875 C12.86207512 15.49875833 16.87425384 20.73158534 20.9375 25.9375 C24.97408501 31.11314527 29.00411928 36.29284736 33 41.5 C36.97898977 46.68315772 40.98534375 51.84442648 45 57 C49.81351723 63.18146123 54.60424879 69.37921882 59.375 75.59375 C63.16590488 80.52192635 66.99270617 85.42228328 70.81274414 90.32788086 C75.16391148 95.91815781 79.49361107 101.52419875 83.80078125 107.1484375 C86.433661 110.56229579 89.11652301 113.93503664 91.8203125 117.29296875 C93 119 93 119 93 121 C75.7475065 123.36385345 75.7475065 123.36385345 69.97265625 119.72119141 C66.37890687 116.30162886 63.77554155 112.20973556 61.22167969 107.98339844 C59.46443527 105.13051002 57.42575297 102.52181958 55.375 99.875 C54.65570312 98.90691406 53.93640625 97.93882812 53.1953125 96.94140625 C50.50353954 93.33481366 47.75985776 89.76989936 45.01123047 86.20654297 C41.49515781 81.64707743 37.99551003 77.07524557 34.5 72.5 C30.67452055 67.49390611 26.84384574 62.49200745 23 57.5 C18.59799325 51.78310812 14.21372285 46.05281359 9.83398438 40.31884766 C6.82688239 36.38339656 3.8105854 32.45537844 0.78271484 28.53588867 C-2.90993558 23.75456001 -6.54318082 18.95477415 -10 14 C-7.20307439 8.72887096 -4.01764453 4.40601683 0 0 Z " fill="#FEFEFE" transform="translate(583,154)"/>
<path d="M0 0 C7.28036762 -1.2213059 14.82695377 -2.14064067 22 0 C27.66301479 4.08278429 30.97003788 10.50023051 34.43505859 16.42236328 C36.79307145 20.306279 39.56012824 23.81587305 42.375 27.375 C43.44857202 28.76932838 44.52014985 30.16519421 45.58984375 31.5625 C46.41331299 32.63371094 46.41331299 32.63371094 47.25341797 33.7265625 C56.2294434 45.41020085 65.13752628 57.13456255 73.8359375 69.02661133 C78.50730461 75.38894385 83.34054006 81.61460046 88.21191406 87.82446289 C92.33294637 93.09424184 96.28126839 98.43588278 100 104 C97.98936672 107.4830355 95.80685281 110.65926155 93.3125 113.8125 C92.68988281 114.60269531 92.06726563 115.39289063 91.42578125 116.20703125 C90.95527344 116.79871094 90.48476563 117.39039063 90 118 C86.42183333 114.54258852 83.23157574 110.93942637 80.1875 107 C79.72303467 106.40388916 79.25856934 105.80777832 78.7800293 105.19360352 C72.4852191 97.08920115 66.28771498 88.90935724 60.08056641 80.73779297 C56.72472588 76.32188172 53.36210714 71.91114069 50 67.5 C48.66663232 65.75002617 47.33329903 64.00002614 46 62.25 C45.34 61.38375 44.68 60.5175 44 59.625 C38 51.75 38 51.75 35.99853516 49.12304688 C34.67012389 47.37952738 33.34167361 45.63603762 32.01318359 43.89257812 C28.60421591 39.41867403 25.1960044 34.944197 21.7890625 30.46875 C21.09683594 29.55971924 20.40460938 28.65068848 19.69140625 27.71411133 C18.33147376 25.92791455 16.97208394 24.14130445 15.61328125 22.35424805 C12.68632508 18.50821884 9.75174805 14.66973019 6.7734375 10.86328125 C6.0606665 9.9496582 6.0606665 9.9496582 5.33349609 9.01757812 C4.10138362 7.44213442 2.86344903 5.87124869 1.625 4.30078125 C0 2 0 2 0 0 Z " fill="#FFFFFF" transform="translate(467,30)"/>
</svg>
